<?xml version="1.0" standalone="no"?><!DOCTYPE svg PUBLIC "-//W3C//DTD SVG 1.1//EN" "http://www.w3.org/Graphics/SVG/1.1/DTD/svg11.dtd"><svg t="1782287772399" class="icon" viewBox="0 0 1338 1024" version="1.1" xmlns="http://www.w3.org/2000/svg" p-id="8027" xmlns:xlink="http://www.w3.org/1999/xlink" width="39.19921875" height="30"><path d="M269.202169 541.042803H60.33027a35.442064 35.442064 0 0 1-35.166404-30.992117l-0.275661-4.410568V371.905396a35.442064 35.442064 0 0 1 31.031497-35.166404l4.410568-0.275661h67.182402a19.690036 19.690036 0 0 1 3.544206 39.065031l-3.544206 0.315041H64.268277v125.819328h204.933892V0H1106.973811v501.662731h175.438218l0.03938-53.556897a19.690036 19.690036 0 0 1 39.065031-3.544206l0.315041 3.544206v147.714648a19.690036 19.690036 0 0 1-39.065031 3.544207l-0.315041-3.544207v-54.738299l-175.516978-0.03938v1.260162h27.408529a39.380072 39.380072 0 0 1 39.380072 39.380072v199.263162c0 32.134138 6.300811 63.874476 18.508634 93.488289l4.804368 11.02642 0.07876 1.181403a15.673268 15.673268 0 0 1 2.756605 8.860516v112.745144a15.752029 15.752029 0 0 1-15.752028 15.752029H194.458793a15.752029 15.752029 0 0 1-15.752028-15.752029v-122.078221l1.732723-4.883129a275.660501 275.660501 0 0 0 16.50025-93.882091v-205.721493a39.380072 39.380072 0 0 1 39.380071-39.380072h32.88236v-1.260162z m891.171019 389.862708H218.047456l0.03938 53.675037h942.365112v-53.714417z m-33.945622-341.34646H244.156443v197.845479a322.916587 322.916587 0 0 1-10.868899 83.210091l-2.677845 9.096797H1143.597277l-0.27566-0.669461a293.145252 293.145252 0 0 1-16.53963-83.761412l-0.354421-14.334346v-191.387148zM1059.638965 47.256086H316.458255v447.790793h743.18071V47.256086z" fill="#000000" p-id="8028"></path><path d="M105.814252 435.267931H1237.715648c8.702996 0 15.752029 7.088413 15.752029 15.752028v138.381572a15.752029 15.752029 0 0 1-15.752029 15.752028H105.814252a15.752029 15.752029 0 0 1-15.752028-15.752028v-138.381572c0-8.663616 7.049033-15.752029 15.752028-15.752028z" fill="#FFFFFF" p-id="8029"></path><path d="M419.476522 766.729993a19.690036 19.690036 0 0 1 3.544206 39.065031l-3.544206 0.31504h-47.256086a19.690036 19.690036 0 0 1-3.544206-39.065031l3.544206-0.31504h47.256086z m130.151136 0a19.690036 19.690036 0 0 1 3.544207 39.065031l-3.544207 0.31504h-47.256085a19.690036 19.690036 0 0 1-3.544207-39.065031l3.544207-0.31504h47.256085z m130.190517 0a19.690036 19.690036 0 0 1 3.544206 39.065031l-3.544206 0.31504h-47.295466a19.690036 19.690036 0 0 1-3.544207-39.065031l3.544207-0.31504h47.256086z m130.151136 0a19.690036 19.690036 0 0 1 3.544207 39.065031l-3.544207 0.31504h-47.256086a19.690036 19.690036 0 0 1-3.544206-39.065031l3.544206-0.31504h47.256086z m130.151137 0a19.690036 19.690036 0 0 1 3.544206 39.065031l-3.544206 0.31504h-47.256086a19.690036 19.690036 0 0 1-3.544207-39.065031l3.544207-0.31504h47.256086zM372.929277 673.635504a19.690036 19.690036 0 0 1 3.544207 39.065031l-3.544207 0.31504h-47.256085a19.690036 19.690036 0 0 1-3.544207-39.065031l3.544207-0.31504h47.256085z m130.151137 0a19.690036 19.690036 0 0 1 3.544206 39.065031l-3.544206 0.31504h-47.256086a19.690036 19.690036 0 0 1-3.544206-39.065031l3.544206-0.31504h47.256086z m130.190516 0a19.690036 19.690036 0 0 1 3.544207 39.065031l-3.544207 0.31504h-47.256086a19.690036 19.690036 0 0 1-3.544206-39.065031l3.544206-0.31504h47.256086z m130.151137 0a19.690036 19.690036 0 0 1 3.544206 39.065031l-3.544206 0.31504h-47.256086a19.690036 19.690036 0 0 1-3.544207-39.065031l3.544207-0.31504h47.256086z m130.151136 0a19.690036 19.690036 0 0 1 3.544207 39.065031l-3.544207 0.31504h-47.256086a19.690036 19.690036 0 0 1-3.544206-39.065031l3.544206-0.31504h47.256086z m130.190517 0a19.690036 19.690036 0 0 1 3.544206 39.065031l-3.544206 0.31504h-47.256086a19.690036 19.690036 0 0 1-3.544207-39.065031l3.544207-0.31504h47.256086z m213.991308-238.367573c8.702996 0 15.752029 7.088413 15.752029 15.752028v138.381572a15.752029 15.752029 0 0 1-15.752029 15.752028H823.319155v22.09222a19.690036 19.690036 0 0 1-39.06503 3.544207l-0.315041-3.544207v-22.1316h-53.675038v22.1316a19.690036 19.690036 0 0 1-39.065031 3.544207l-0.31504-3.544207v-22.1316H637.169557v22.1316a19.690036 19.690036 0 0 1-39.065031 3.544207l-0.31504-3.544207v-22.1316h-53.675038v22.1316a19.690036 19.690036 0 0 1-39.065031 3.544207l-0.31504-3.544207v-22.1316H105.814252a15.752029 15.752029 0 0 1-15.752028-15.752028v-138.342192c0-8.663616 7.049033-15.752029 15.752028-15.752028H1237.715648z m-23.628043 39.380071H129.402915v91.086106h375.292082v-40.876515a19.690036 19.690036 0 0 1 39.104411-3.544206l0.31504 3.544206v40.837135h53.675038v-40.837135a19.690036 19.690036 0 0 1 39.065031-3.544206l0.31504 3.544206v40.837135h53.714418v-40.837135a19.690036 19.690036 0 0 1 39.065031-3.544206l0.31504 3.544206v40.837135h53.675038v-40.837135a19.690036 19.690036 0 0 1 39.065031-3.544206l0.31504 3.544206v40.837135l390.80783 0.03938v-91.086106z" fill="#000000" p-id="8030"></path><path d="M557.779333 313.97731v39.380072h-155.393762v-39.380072h155.393762z m243.290082 0v39.380072h-198.47556v-39.380072h198.47556z m-302.399569-107.035034v39.380071h-96.284275v-39.380071h96.284275z m133.459062 0v39.380071h-96.284275v-39.380071h96.284275z m235.650348 0v39.380071h-198.47556v-39.380071h198.47556z" fill="#FA6400" p-id="8031"></path></svg>